<svg xmlns="http://www.w3.org/2000/svg" width="259" height="81" viewBox="0 0 259 81">
<g>
<path d="M 99.69 51.47 L 102.50 53.94 L 98.81 53.97 C95.71,53.99 93.98,53.03 88.06,47.91 C84.18,44.56 81.00,41.64 81.00,41.41 C81.00,39.93 84.71,41.41 85.51,43.22 C86.06,44.44 88.30,46.67 90.50,48.19 C94.64,51.03 96.57,51.73 95.50,50.00 C94.33,48.11 96.89,49.00 99.69,51.47 ZM 180.25 49.34 C181.23,49.73 181.22,49.86 180.22,49.92 C178.42,50.03 178.08,48.59 177.77,39.50 C177.54,32.59 177.26,31.52 175.75,31.64 C174.65,31.73 174.00,31.07 174.00,29.89 C174.00,28.54 174.72,28.00 176.50,28.00 L 179.00 28.00 L 179.00 38.42 C179.00,45.81 179.36,48.98 180.25,49.34 ZM 206.68 34.15 C205.71,33.34 204.98,33.38 203.94,34.27 C203.17,34.95 203.65,34.22 205.01,32.66 C207.60,29.70 211.13,27.33 210.90,28.71 C210.53,30.87 211.17,32.00 212.75,32.02 C213.82,32.04 213.23,32.67 211.25,33.65 C208.85,34.83 207.66,34.96 206.68,34.15 ZM 37.22 33.63 C34.79,35.48 34.11,35.30 34.71,33.00 C35.30,30.74 34.72,30.54 31.93,32.04 C28.71,33.76 29.77,32.11 33.25,29.99 C35.04,28.90 37.85,28.04 39.50,28.08 C41.15,28.12 41.83,28.38 41.00,28.66 C40.17,28.93 38.86,29.36 38.08,29.61 C37.03,29.95 36.95,30.35 37.80,31.20 C38.64,32.04 38.49,32.66 37.22,33.63 ZM 144.35 35.32 C145.54,36.22 145.71,37.32 145.10,40.00 L 144.30 43.50 L 143.90 40.50 C143.68,38.85 142.94,37.50 142.25,37.50 C141.56,37.50 141.01,37.05 141.01,36.50 C141.04,34.42 142.17,32.00 143.13,32.00 C143.67,32.00 143.82,32.48 143.46,33.07 C143.10,33.65 143.50,34.67 144.35,35.32 ZM 111.00 52.50 C110.32,53.33 108.44,54.00 106.84,54.00 C104.37,54.00 104.07,53.74 104.89,52.25 C106.58,49.18 108.94,46.46 108.97,47.55 C108.99,48.13 108.46,49.14 107.80,49.80 C106.87,50.73 107.23,51.00 109.42,51.00 C111.82,51.00 112.06,51.23 111.00,52.50 ZM 142.00 53.12 C142.00,54.14 136.65,54.32 135.67,53.33 C134.73,52.39 134.83,50.78 135.80,51.38 C136.24,51.65 137.23,51.47 138.01,50.99 C139.46,50.09 142.00,51.45 142.00,53.12 ZM 122.44 47.75 C122.86,49.11 122.71,50.00 122.07,50.00 C121.48,50.00 119.99,48.99 118.75,47.75 L 116.50 45.50 L 118.84 45.17 L 118.85 45.17 C120.13,44.99 120.80,44.89 121.25,45.16 C121.74,45.46 121.97,46.20 122.44,47.75 ZM 232.00 30.00 C231.41,31.10 230.02,32.00 228.91,32.00 C227.68,32.00 227.15,31.56 227.57,30.89 C227.95,30.28 227.64,29.38 226.88,28.90 C225.95,28.32 226.74,28.03 229.29,28.02 C232.76,28.00 232.98,28.16 232.00,30.00 ZM 113.69 45.09 C113.03,44.43 112.05,44.44 110.77,45.12 C109.10,46.02 108.98,45.92 109.85,44.33 C110.40,43.32 111.56,41.60 112.43,40.50 C113.61,39.00 113.86,38.92 113.42,40.19 C113.10,41.12 113.31,42.69 113.89,43.69 C114.47,44.69 114.95,44.94 114.97,44.25 C114.99,43.56 115.51,43.00 116.12,43.00 C116.88,43.00 116.83,43.50 115.96,44.54 C115.12,45.57 114.35,45.75 113.69,45.09 ZM 78.00 52.48 C78.00,53.50 77.01,54.00 75.00,54.00 C73.22,54.00 72.00,53.48 72.00,52.71 C72.00,52.00 73.34,51.32 75.00,51.20 C77.11,51.04 78.00,51.42 78.00,52.48 ZM 230.77 41.00 C230.08,42.10 228.61,42.99 227.51,42.98 C225.98,42.97 225.83,42.76 226.88,42.10 C227.64,41.62 227.95,40.72 227.57,40.11 C227.13,39.41 227.82,39.00 229.45,39.00 C231.77,39.00 231.90,39.19 230.77,41.00 ZM 169.80 52.80 C168.04,54.56 167.00,54.27 167.00,52.00 C167.00,50.67 167.67,50.00 169.00,50.00 C171.27,50.00 171.56,51.04 169.80,52.80 ZM 232.39 52.42 C232.06,53.29 231.43,54.00 231.00,54.00 C230.32,54.00 229.00,51.64 229.00,50.42 C229.00,50.19 229.90,50.00 231.00,50.00 C233.20,50.00 233.27,50.12 232.39,52.42 ZM 170.00 30.00 C169.41,31.10 168.42,32.00 167.80,32.00 C167.18,32.00 166.96,31.70 167.32,31.34 C167.69,30.98 167.48,30.08 166.87,29.34 C165.98,28.28 166.30,28.00 168.41,28.00 C170.76,28.00 170.95,28.23 170.00,30.00 ZM 150.00 29.50 C149.32,30.33 147.57,30.98 146.13,30.96 L 143.50 30.93 L 146.00 29.50 C149.49,27.50 151.66,27.50 150.00,29.50 ZM 208.45 51.08 C207.69,52.32 207.54,52.27 205.81,50.25 C202.72,46.66 202.73,45.67 205.83,47.88 C207.59,49.13 208.77,50.57 208.45,51.08 ZM 200.80 52.80 C199.01,54.59 198.12,54.25 198.71,52.00 C199.00,50.90 199.86,50.00 200.62,50.00 C202.32,50.00 202.40,51.20 200.80,52.80 ZM 161.50 29.00 C160.77,30.18 159.25,30.18 156.50,29.00 C154.90,28.31 155.27,28.13 158.31,28.07 C160.61,28.03 161.87,28.40 161.50,29.00 ZM 68.00 34.12 C68.00,34.61 67.32,35.00 66.50,35.00 C65.64,35.00 65.00,34.10 65.00,32.88 C65.00,31.10 65.25,30.96 66.50,32.00 C67.32,32.68 68.00,33.64 68.00,34.12 ZM 38.60 52.50 C40.06,53.60 40.15,53.94 39.00,53.95 C36.86,53.98 34.59,52.37 35.75,51.66 C36.27,51.33 37.56,51.71 38.60,52.50 ZM 210.15 46.75 C210.79,47.39 210.60,47.94 209.60,48.32 C208.75,48.65 207.82,48.51 207.52,48.03 C206.71,46.72 209.01,45.61 210.15,46.75 Z" fill="rgb(186,78,66)"/>
<path d="M 37.22 33.63 C38.49,32.66 38.64,32.04 37.80,31.20 C36.95,30.35 37.03,29.95 38.08,29.61 C38.86,29.36 40.17,28.93 41.00,28.66 C41.53,28.48 41.44,28.31 40.86,28.20 C42.86,28.06 45.21,28.01 48.00,28.01 C57.90,28.00 62.62,28.72 65.58,31.38 C65.11,31.22 65.00,31.68 65.00,32.88 C65.00,34.10 65.64,35.00 66.50,35.00 C67.14,35.00 67.69,34.76 67.91,34.43 C68.06,34.71 68.21,34.99 68.35,35.29 C70.80,40.30 69.88,45.07 65.56,49.78 L 62.24 53.40 L 49.87 53.76 C45.59,53.89 42.33,53.88 39.78,53.62 C39.71,53.40 39.32,53.04 38.60,52.50 C37.56,51.71 36.27,51.33 35.75,51.66 C35.24,51.97 35.39,52.45 35.89,52.89 C32.80,51.90 31.24,50.02 29.67,46.72 C27.68,42.53 27.62,41.01 29.20,35.73 C29.55,34.56 29.94,33.56 30.43,32.71 C30.74,32.62 31.24,32.41 31.93,32.04 C34.72,30.54 35.30,30.74 34.71,33.00 C34.11,35.30 34.79,35.48 37.22,33.63 ZM 38.42 48.92 C43.69,50.46 56.77,50.17 60.09,48.45 C65.65,45.58 66.28,37.94 61.29,34.01 C59.12,32.31 57.24,32.00 48.94,32.00 C39.87,32.00 38.93,32.19 36.08,34.59 C31.06,38.81 32.43,47.19 38.42,48.92 ZM 72.00 52.71 L 72.00 44.12 C72.00,38.69 72.28,32.84 72.62,31.12 L 73.25 28.00 L 84.88 28.01 C98.33,28.03 100.81,28.90 102.87,34.31 C104.20,37.82 104.16,38.31 102.32,40.80 C101.22,42.29 98.87,44.20 97.09,45.06 L 93.85 46.62 L 98.16 50.25 C96.06,48.77 94.55,48.46 95.50,50.00 C96.57,51.73 94.64,51.03 90.50,48.19 C88.30,46.67 86.06,44.44 85.51,43.22 C85.18,42.47 84.34,41.77 83.47,41.32 L 88.55 41.00 C97.62,40.43 99.00,39.83 99.00,36.48 C99.00,32.99 96.25,32.00 86.57,32.00 L 78.00 32.00 L 78.00 54.00 L 72.00 54.00 L 72.00 52.71 ZM 206.68 34.15 C207.59,34.91 208.70,34.84 210.80,33.86 C210.55,34.03 210.32,34.21 210.10,34.40 C205.75,38.35 207.16,39.00 220.01,39.00 C223.97,39.00 226.63,39.00 228.35,39.08 C227.53,39.24 227.25,39.59 227.57,40.11 C227.95,40.72 227.64,41.62 226.88,42.10 C226.20,42.52 226.02,42.76 226.39,42.88 C224.78,42.97 222.51,42.96 219.20,42.92 C213.53,42.84 208.58,43.08 208.20,43.47 C207.82,43.85 208.97,45.48 210.77,47.08 C213.89,49.87 214.45,50.00 223.52,50.00 C226.21,50.00 228.20,50.02 229.63,50.11 C229.24,50.19 229.00,50.30 229.00,50.42 C229.00,51.34 229.75,52.92 230.42,53.63 C228.78,53.94 225.89,54.01 221.11,53.89 C214.94,53.74 210.73,53.18 207.90,51.81 C208.07,51.68 208.24,51.43 208.45,51.08 C208.77,50.57 207.59,49.13 205.83,47.88 C204.42,46.88 203.65,46.53 203.52,46.79 C202.93,45.04 202.68,42.87 202.64,40.20 C202.57,35.53 202.80,34.64 205.62,31.99 C205.42,32.21 205.21,32.43 205.01,32.66 C203.65,34.22 203.17,34.95 203.94,34.27 C204.98,33.38 205.71,33.34 206.68,34.15 ZM 122.44 47.75 C122.01,46.36 121.79,45.62 121.39,45.27 C121.79,45.24 122.23,45.22 122.70,45.20 C125.89,45.03 128.84,44.55 129.25,44.14 C129.67,43.73 128.63,41.23 126.95,38.58 L 123.89 33.76 L 121.44 36.05 C120.10,37.32 119.00,38.71 119.00,39.14 C119.00,39.44 118.04,41.19 116.63,43.51 C116.73,43.17 116.56,43.00 116.12,43.00 C115.51,43.00 114.99,43.56 114.97,44.25 C114.95,44.94 114.47,44.69 113.89,43.69 C113.31,42.69 113.10,41.12 113.42,40.19 C113.70,39.37 113.70,39.11 113.34,39.44 C114.49,37.69 115.76,35.78 117.14,33.69 C121.69,26.82 124.28,26.49 128.20,32.30 C133.14,39.59 138.19,47.30 140.58,51.11 C139.76,50.66 138.75,50.54 138.01,50.99 C137.23,51.47 136.24,51.65 135.80,51.38 C135.19,51.00 134.92,51.50 135.04,52.16 C134.96,52.06 134.88,51.95 134.81,51.84 C133.59,50.00 132.38,49.67 126.61,49.59 C124.96,49.57 123.68,49.52 122.65,49.42 C122.72,49.03 122.66,48.45 122.44,47.75 ZM 144.35 35.32 C143.50,34.67 143.10,33.65 143.46,33.07 C143.82,32.48 143.67,32.00 143.13,32.00 C143.04,32.00 142.94,32.02 142.85,32.06 C143.18,31.65 143.54,31.27 143.92,30.93 L 146.13 30.96 C147.57,30.98 149.32,30.33 150.00,29.50 C150.40,29.02 150.58,28.65 150.57,28.41 C152.94,28.10 155.98,28.00 159.97,28.00 C163.22,28.00 165.52,28.01 167.12,28.07 C166.22,28.20 166.22,28.55 166.87,29.34 C167.48,30.08 167.69,30.98 167.32,31.34 C167.16,31.50 167.12,31.65 167.17,31.77 C165.97,31.95 164.23,32.00 161.59,32.00 C151.03,32.00 148.17,32.77 146.46,36.08 C144.76,39.37 144.58,43.35 146.01,46.02 C147.42,48.65 153.06,49.99 162.75,49.99 C165.05,50.00 166.80,50.04 168.08,50.14 C167.36,50.40 167.00,51.02 167.00,52.00 C167.00,52.77 167.12,53.31 167.34,53.62 C162.09,54.47 150.51,53.96 147.29,52.37 C141.72,49.63 138.36,39.93 141.16,34.70 C141.24,34.54 141.33,34.39 141.42,34.23 C141.18,34.95 141.02,35.75 141.01,36.50 C141.01,37.05 141.56,37.50 142.25,37.50 C142.94,37.50 143.68,38.85 143.90,40.50 L 144.30 43.50 L 145.10 40.00 C145.71,37.32 145.54,36.22 144.35,35.32 ZM 180.25 49.34 C179.98,49.23 179.75,48.85 179.57,48.16 C179.81,48.88 180.14,49.22 180.58,49.39 C181.45,49.73 186.63,50.00 192.08,50.00 C195.82,50.00 198.32,50.06 199.85,50.27 C199.35,50.62 198.90,51.27 198.71,52.00 C198.54,52.66 198.49,53.16 198.56,53.48 C192.44,54.44 176.39,54.18 175.27,52.75 C174.73,52.06 174.19,46.21 174.07,39.75 L 173.85 28.00 L 176.50 28.00 C174.72,28.00 174.00,28.54 174.00,29.89 C174.00,31.07 174.65,31.73 175.75,31.64 C177.26,31.52 177.54,32.59 177.77,39.50 C178.08,48.59 178.42,50.03 180.22,49.92 C181.22,49.86 181.23,49.73 180.25,49.34 ZM 208.02 29.79 L 209.97 28.00 L 221.52 28.00 C224.38,28.00 226.53,28.01 228.13,28.05 C226.52,28.13 226.11,28.42 226.88,28.90 C227.64,29.38 227.95,30.28 227.57,30.89 C227.32,31.29 227.40,31.60 227.76,31.79 C226.31,31.95 224.33,32.05 221.62,32.15 C216.40,32.35 213.69,32.62 211.96,33.28 C213.36,32.51 213.68,32.03 212.75,32.02 C211.17,32.00 210.53,30.87 210.90,28.71 C211.04,27.84 209.69,28.46 208.02,29.79 ZM 113.69 45.09 C114.35,45.75 115.12,45.57 115.96,44.54 C116.00,44.50 116.04,44.45 116.07,44.41 C115.57,45.22 115.02,46.09 114.45,46.97 C113.23,48.86 112.29,50.25 111.51,51.27 C111.28,51.06 110.62,51.00 109.42,51.00 C107.23,51.00 106.87,50.73 107.80,49.80 C108.46,49.14 108.99,48.13 108.97,47.55 C108.95,46.93 108.18,47.54 107.22,48.74 C107.82,47.83 108.52,46.76 109.31,45.54 C109.31,45.84 109.76,45.66 110.77,45.12 C112.05,44.44 113.03,44.43 113.69,45.09 ZM 78.00 52.48 C78.00,51.42 77.11,51.04 75.00,51.20 C73.34,51.32 72.00,52.00 72.00,52.71 C72.00,53.48 73.22,54.00 75.00,54.00 C77.01,54.00 78.00,53.50 78.00,52.48 ZM 161.50 29.00 C161.87,28.40 160.61,28.03 158.31,28.07 C155.27,28.13 154.90,28.31 156.50,29.00 C159.25,30.18 160.77,30.18 161.50,29.00 ZM 210.15 46.75 C209.01,45.61 206.71,46.72 207.52,48.03 C207.82,48.51 208.75,48.65 209.60,48.32 C210.60,47.94 210.79,47.39 210.15,46.75 ZM 81.03 41.47 C81.36,41.96 84.39,44.75 88.06,47.91 C89.18,48.88 90.15,49.70 91.01,50.39 C90.10,49.66 89.07,48.79 87.86,47.75 L 80.61 41.50 ZM 206.33 50.85 C205.28,50.05 204.51,49.07 203.94,47.86 C204.32,48.44 204.94,49.24 205.81,50.25 C206.00,50.47 206.17,50.67 206.33,50.85 ZM 139.12 54.00 C138.99,54.00 138.85,54.00 138.72,53.99 C140.14,53.99 141.56,53.76 141.92,53.33 C141.97,53.44 142.00,53.51 142.00,53.53 C142.00,53.79 140.70,54.00 139.12,54.00 ZM 119.95 48.82 C119.27,48.52 118.80,48.09 118.37,47.50 C118.25,47.33 118.14,47.18 118.04,47.04 L 118.75 47.75 C119.14,48.14 119.55,48.50 119.95,48.82 ZM 34.57 29.30 C34.09,29.52 33.65,29.75 33.25,29.99 C32.71,30.32 32.23,30.64 31.81,30.93 C32.54,30.25 33.44,29.72 34.57,29.30 ZM 230.77 41.00 C230.89,40.81 230.99,40.64 231.08,40.48 C231.00,40.64 230.88,40.83 230.76,41.03 C230.39,41.62 230.03,42.04 229.41,42.34 C229.96,41.98 230.45,41.51 230.77,41.00 ZM 232.43 52.33 C232.58,51.92 232.71,51.59 232.79,51.31 C232.79,51.59 232.65,51.92 232.43,52.33 ZM 106.86 54.00 C107.46,54.00 108.11,53.90 108.71,53.74 C108.16,53.94 107.58,54.00 106.89,54.00 ZM 104.50 53.45 C104.41,53.27 104.46,53.04 104.63,52.75 C104.64,52.73 104.65,52.71 104.67,52.69 C104.52,53.02 104.45,53.27 104.50,53.45 ZM 200.80 52.80 C201.27,52.33 201.59,51.90 201.77,51.52 C201.65,51.87 201.31,52.29 200.80,52.80 ZM 102.47 53.91 L 101.77 53.30 L 102.50 53.91 ZM 169.80 52.80 C170.27,52.33 170.59,51.91 170.77,51.55 C170.63,51.89 170.30,52.30 169.80,52.80 ZM 232.20 29.62 C232.15,29.71 232.11,29.80 232.05,29.90 C232.05,29.91 232.04,29.92 232.04,29.93 C232.09,29.82 232.15,29.72 232.20,29.62 ZM 170.00 30.00 C169.93,30.12 169.87,30.24 169.80,30.34 C169.87,30.23 169.94,30.12 170.00,30.00 Z" fill="rgb(191,73,57)"/>
<path d="M 0.00 40.50 L 0.00 0.00 L 129.50 0.00 L 259.00 0.00 L 259.00 40.50 L 259.00 81.00 L 129.50 81.00 L 0.00 81.00 L 0.00 40.50 ZM 65.56 49.78 C69.88,45.07 70.80,40.30 68.35,35.29 C65.46,29.37 61.64,28.00 48.00,28.01 C34.27,28.01 31.13,29.30 29.20,35.73 C27.62,41.01 27.68,42.53 29.67,46.72 C32.71,53.12 35.74,54.17 49.87,53.76 L 62.24 53.40 L 65.56 49.78 ZM 78.00 43.00 L 78.00 32.00 L 86.57 32.00 C96.25,32.00 99.00,32.99 99.00,36.48 C99.00,39.83 97.62,40.43 88.55,41.00 L 80.61 41.50 L 87.86 47.75 C93.99,53.03 95.69,53.99 98.81,53.96 L 102.50 53.91 L 98.18 50.26 L 93.85 46.62 L 97.09 45.06 C98.87,44.20 101.22,42.29 102.32,40.80 C104.16,38.31 104.20,37.82 102.87,34.31 C100.81,28.90 98.33,28.03 84.88,28.01 L 73.25 28.00 L 72.62 31.12 C72.28,32.84 72.00,38.69 72.00,44.12 L 72.00 54.00 L 75.00 54.00 L 78.00 54.00 L 78.00 43.00 ZM 114.45 46.97 C116.95,43.10 119.00,39.58 119.00,39.14 C119.00,38.71 120.10,37.32 121.44,36.05 L 123.89 33.76 L 126.95 38.58 C128.63,41.23 129.67,43.73 129.25,44.14 C128.84,44.55 125.89,45.03 122.70,45.20 C117.10,45.49 116.95,45.57 118.37,47.50 C119.57,49.14 121.06,49.52 126.61,49.59 C132.38,49.67 133.59,50.00 134.81,51.84 C135.73,53.22 137.28,54.00 139.12,54.00 C140.70,54.00 142.00,53.79 142.00,53.53 C142.00,53.13 134.99,42.33 128.20,32.30 C124.28,26.49 121.69,26.82 117.14,33.69 C109.46,45.30 105.30,51.63 104.63,52.75 C104.10,53.64 104.75,54.00 106.89,54.00 C109.52,54.00 110.48,53.11 114.45,46.97 ZM 169.80 52.80 C172.12,50.48 170.92,50.00 162.75,49.99 C153.06,49.99 147.42,48.65 146.01,46.02 C144.58,43.35 144.76,39.37 146.46,36.08 C148.17,32.77 151.03,32.00 161.59,32.00 C167.91,32.00 169.08,31.72 170.00,30.00 C171.04,28.06 170.76,28.00 159.97,28.00 C147.09,28.00 144.19,29.03 141.16,34.70 C138.36,39.93 141.72,49.63 147.29,52.37 C151.26,54.33 167.95,54.65 169.80,52.80 ZM 200.80 52.80 C203.17,50.43 201.85,50.00 192.08,50.00 C186.63,50.00 181.45,49.73 180.58,49.39 C179.28,48.89 179.00,46.95 179.00,38.39 L 179.00 28.00 L 176.43 28.00 L 173.85 28.00 L 174.07 39.75 C174.19,46.21 174.73,52.06 175.27,52.75 C176.60,54.46 199.10,54.50 200.80,52.80 ZM 232.13 52.82 C233.75,50.27 232.92,50.00 223.52,50.00 C214.45,50.00 213.89,49.87 210.77,47.08 C208.97,45.48 207.82,43.85 208.20,43.47 C208.58,43.08 213.53,42.84 219.20,42.92 C228.56,43.05 229.61,42.88 230.76,41.03 C232.00,39.03 231.83,39.00 220.01,39.00 C207.16,39.00 205.75,38.35 210.10,34.40 C211.78,32.88 214.09,32.43 221.62,32.15 C229.64,31.86 231.18,31.52 232.05,29.90 C233.03,28.08 232.56,28.00 221.52,28.00 L 209.97 28.00 L 206.27 31.40 C202.84,34.54 202.57,35.20 202.64,40.20 C202.79,50.87 206.38,53.53 221.11,53.89 C228.68,54.08 231.51,53.80 232.13,52.82 ZM 38.42 48.92 C32.43,47.19 31.06,38.81 36.08,34.59 C38.93,32.19 39.87,32.00 48.94,32.00 C57.24,32.00 59.12,32.31 61.29,34.01 C66.28,37.94 65.65,45.58 60.09,48.45 C56.77,50.17 43.69,50.46 38.42,48.92 Z" fill="rgb(253,252,251)"/>
</g>
</svg>