<svg width="500" height="97" version="1.1" xmlns="http://www.w3.org/2000/svg">
 <path d="m477.54 52.099-12.044-0.01213c-2.8689 0-5.1956-2.3447-5.1956-5.2394 0-2.8914 2.3259-5.237 5.1956-5.237h26.302c0.10684-0.32964 2.6962-8.2823 2.6994-18.382 0 0-28.487-0.0024-30.24-0.0024-12.295 0-22.263 10.051-22.263 22.451 0 12.4 9.9671 22.461 22.263 22.461h12.044c2.8689 0 5.1956 2.3455 5.1956 5.2386 0 2.8931-2.3259 5.2378-5.1956 5.2378h-29.834c-0.11001 0.32882-2.6978 8.2823-2.6994 18.383 0 0 33.331 0.0016 33.773 0.0016 12.295 0 22.264-10.05 22.264-22.451-8e-4 -12.398-9.9695-22.449-22.265-22.449zm-266.35 16.721c-9.4427-3.7815-17.7-4.0553-17.7-4.0553-2.2922 8.8914-10.844 14.872-20.106 13.641-2.0802-0.27454-4.0318-0.8974-5.8076-1.7948l41.41-32.043c-5.104-11.072-15.54-19.357-28.432-21.069-20.044-2.6606-38.428 11.567-41.068 31.778-2.6392 20.212 11.471 38.753 31.511 41.413 18.52 2.4597 35.623-10.09 40.198-27.869zm-53.575-11.135c1.3212-10.116 10.523-17.235 20.55-15.905 2.0802 0.27618 4.0318 0.89983 5.8076 1.7964l-26.141 20.228c-0.39919-1.9616-0.49073-4.0205-0.21685-6.1198zm121.46-34.534c-6.6702 0-12.918 1.8078-18.303 4.9519l-5e-3 -26.546c-10.032 0.00324-17.993 2.6209-18.293 2.7222 0 0-0.0153 55.753-0.0153 55.797 0 20.389 16.396 36.922 36.616 36.922 20.227 0 36.617-16.533 36.617-36.922 8e-4 -20.392-16.391-36.925-36.617-36.925zm0 55.385c-10.11 0-18.308-8.2669-18.308-18.461h5e-3v-0.1377c0.0739-10.135 8.2388-18.325 18.303-18.325 10.115 0 18.311 8.2661 18.311 18.463 0 10.195-8.197 18.461-18.311 18.461zm-62.322 18.462h18.309v-95.442c-10.018 0.00324-17.967 2.6128-18.292 2.7222zm-215.71 0.001623h18.308v-73.846c-10.24 0-18.308 2.7278-18.308 2.7278zm57.76-73.847c-17.973 0-32.546 14.694-32.546 32.817 0 0.01214 0.0016 0.02512 0.0016 0.03805v40.992h18.307v-41.03c0-7.93 6.3754-14.359 14.238-14.359 7.8661 0 14.239 6.4292 14.239 14.359v41.03h18.308v-41.03c0-18.123-14.572-32.817-32.548-32.817zm-48.606-23.153c-5.5281 0-10.009 4.5194-10.009 10.092 0 5.5772 4.4808 10.097 10.009 10.097 5.5297 0 10.011-4.5194 10.011-10.097 0-5.5723-4.4808-10.092-10.011-10.092zm360.75 27.871c-4.9065-2.9919-10.658-4.7203-16.813-4.7203-17.971 0-32.544 14.696-32.544 32.817 0 0.01458 2e-3 0.02671 2e-3 0.0397v40.99h18.306l2e-3 -41.03h-2e-3c0-7.9284 6.3754-14.358 14.236-14.358 2.1942 0 4.2656 0.50782 6.1192 1.4004 2.4496-5.8088 6.1232-10.964 10.694-15.139zm-234.74 49.269c-1.8529 0.89173-3.9234 1.4004-6.1152 1.4004-7.8621 0-14.238-6.4292-14.238-14.359h8e-4l3e-3 -22.565 13.858-0.0032c0-0.0032 2.2946-8.1373 2.2946-18.459l-16.153 0.0032v-21.601c-10.239 0-18.311 2.7278-18.311 2.7278s0.0048 11.094 0.0024 18.867h-0.0024v40.99 0.03964c0 18.123 14.572 32.818 32.545 32.818 6.1522 0 11.902-1.7268 16.811-4.7202-4.5723-4.1752-8.246-9.332-10.695-15.139zm263.49-53.989c-20.222 0-36.614 16.533-36.614 36.925 0 20.389 16.392 36.922 36.614 36.922 6.6734 0 12.928-1.8069 18.314-4.9511v4.9535h18.305v-36.925c-8.1e-4 -20.393-16.395-36.924-36.619-36.924zm18.305 36.924v0.18307c-0.0972 10.111-8.254 18.278-18.306 18.278-10.112 0-18.309-8.2645-18.309-18.461 0-10.195 8.1978-18.465 18.309-18.465 10.113 0 18.308 8.2693 18.308 18.465z" fill="#06cb3f" stroke-width="6.0983"/>
</svg>
